<svg xmlns="http://www.w3.org/2000/svg" width="414" height="329" fill="none" viewBox="0 0 414 329">
  <path fill="#ECECEC" fill-rule="evenodd" d="M-1 290.625h417v-.25H-1v.25Zm44 7.999h27v-.249H43v.249Zm99-2h39v-.249h-39v.249Zm-49 9.001h17v-.25H93v.25Zm167-3h25v-.25h-25v.25Zm31 0h17v-.25h-17v.25Zm35 2.999h49v-.249h-49v.249ZM36.902 18.044a4.55 4.55 0 0 0-4.54 4.551v226.322a4.55 4.55 0 0 0 4.54 4.551H197.52c2.502 0 4.539-2.041 4.539-4.551V22.595a4.55 4.55 0 0 0-4.539-4.55H36.901ZM197.52 253.677H36.901c-2.617 0-4.747-2.135-4.747-4.76V22.595c0-2.624 2.13-4.76 4.748-4.76H197.52c2.617 0 4.747 2.136 4.747 4.76v226.322c0 2.625-2.13 4.76-4.747 4.76Zm19.297-235.633c-2.503 0-4.539 2.042-4.539 4.551v226.322c0 2.51 2.036 4.551 4.539 4.551h160.619a4.55 4.55 0 0 0 4.54-4.551V22.595a4.55 4.55 0 0 0-4.54-4.55H216.817Zm160.619 235.633H216.817c-2.617 0-4.747-2.135-4.747-4.76V22.595c0-2.624 2.13-4.76 4.747-4.76h160.619c2.618 0 4.748 2.136 4.748 4.76v226.322c0 2.625-2.13 4.76-4.748 4.76Z" clip-rule="evenodd"/>
  <path fill="#FAFAFA" fill-rule="evenodd" d="M278.262 27.86c0 14.285-11.552 25.865-25.803 25.865-14.249 0-25.801-11.58-25.801-25.865 0-14.284 11.552-25.865 25.801-25.865 14.251 0 25.803 11.58 25.803 25.865Z" clip-rule="evenodd"/>
  <path fill="#F5F5F5" fill-rule="evenodd" d="M354.575 38.723a.896.896 0 0 0 .375-.127c3.513-2.153 8.184-3.61 12.243-3.61 4.561 0 7.039 1.838 6.601 4.44a.96.96 0 0 0 1.072 1.122 11.997 11.997 0 0 1 1.626-.116c3.656 0 5.118 1.928 3.276 4.302-.093.12-.194.239-.3.356a.936.936 0 0 1-.699.3h-33.96c-.788 0-1.261-.91-.778-1.535l.012-.017c1.983-2.553 6.46-4.675 10.532-5.115ZM157.172 161.026a.898.898 0 0 0 .374-.126c3.514-2.153 8.184-3.61 12.244-3.61 4.56 0 7.038 1.838 6.601 4.439a.96.96 0 0 0 1.072 1.123 11.966 11.966 0 0 1 1.626-.116c3.656 0 5.119 1.927 3.276 4.301-.094.12-.194.24-.301.357a.938.938 0 0 1-.698.299h-33.96c-.789 0-1.261-.91-.779-1.535l.013-.016c1.983-2.553 6.46-4.675 10.532-5.116Z" clip-rule="evenodd"/>
  <mask id="a" width="38" height="12" x="143" y="0" maskUnits="userSpaceOnUse" style="mask-type:alpha">
    <path fill="#fff" fill-rule="evenodd" d="M143.806.684h36.728v10.403h-36.728V.684Z" clip-rule="evenodd"/>
  </mask>
  <g mask="url(#a)">
    <path fill="#F5F5F5" fill-rule="evenodd" d="M154.545 4.42a.899.899 0 0 0 .374-.127c3.514-2.153 8.184-3.61 12.244-3.61 4.56 0 7.038 1.838 6.601 4.44a.96.96 0 0 0 1.072 1.122 11.99 11.99 0 0 1 1.626-.117c3.656 0 5.119 1.929 3.276 4.303a6.16 6.16 0 0 1-.301.357.939.939 0 0 1-.698.3h-33.96c-.789 0-1.261-.911-.779-1.537a.107.107 0 0 0 .013-.016c1.983-2.553 6.46-4.675 10.532-5.115Z" clip-rule="evenodd"/>
  </g>
  <path fill="#F5F5F5" fill-rule="evenodd" d="M340.318 52.522h-.012a1.231 1.231 0 0 1-1.21-.984c-.458-2.1-3.008-3.49-7.139-3.49-.894 0-1.816.065-2.748.189-.624.082-1.188-.329-1.338-.942-.682-2.771-4.11-4.596-9.613-4.596-7.462 0-16.33 3.358-21.506 7.88a1.161 1.161 0 0 1-.614.28c-4.754.674-9.832 3.16-12.131 6.12-.252.324-.464.65-.635.961h61.012l.03-.038c2.305-2.97.471-5.38-4.096-5.38Zm-282.794 75.2h-.008a.757.757 0 0 1-.742-.604c-.28-1.286-1.843-2.138-4.375-2.138-.548 0-1.113.04-1.684.116a.748.748 0 0 1-.82-.577c-.418-1.699-2.52-2.818-5.892-2.818-4.573 0-10.008 2.058-13.18 4.83a.715.715 0 0 1-.377.172c-2.914.413-6.026 1.936-7.435 3.751a4.37 4.37 0 0 0-.39.588h37.395l.018-.022c1.413-1.821.289-3.298-2.51-3.298Z" clip-rule="evenodd"/>
  <path fill="#E7E7E7" fill-rule="evenodd" d="M103.054 168.333c-8.075-41.914 36.784-85.05 26.802-99.501-9.982-14.454-52.68-32.334-35.652-1.76 17.027 30.572-2.056 47.804-24.791 103.113-22.737 55.31-13.032 108.396-8.18 120.679h65.296c3.882-27.292-10.506-55.218-23.475-122.531Z" clip-rule="evenodd"/>
  <path fill="#E7E7E7" fill-rule="evenodd" d="M100.903 180.469c13.24-34.267 36.584-54.974 44.498-68.627 7.913-13.653 41.11-25.204 22.348-.209s-44.059 27.254-34.231 72.471c9.829 45.218 18.886 96.717 12.974 106.76H93.109c1.15-22.312-13.468-55.364 7.794-110.395Z" clip-rule="evenodd"/>
  <path fill="#E7E7E7" fill-rule="evenodd" d="M184.046 90.282c8.254-1.161 46.051 23.758 22.535 27.542-23.514 3.784-38.677-25.27-22.535-27.541Z" clip-rule="evenodd"/>
  <path fill="#E7E7E7" fill-rule="evenodd" d="M173.179 83.84c7.456-3.732 51.197 7.845 30.103 18.928-21.094 11.083-44.687-11.629-30.103-18.928Z" clip-rule="evenodd"/>
  <path fill="#E7E7E7" fill-rule="evenodd" d="M167.015 76.589c8.333.17 41.692 30.801 17.876 30.786-23.816-.017-34.172-31.12-17.876-30.786Z" clip-rule="evenodd"/>
  <path fill="#E7E7E7" fill-rule="evenodd" d="M165.177 78.928c-7.572-3.493-50.923 9.472-29.488 19.878 21.435 10.405 44.296-13.048 29.488-19.878Z" clip-rule="evenodd"/>
  <path fill="#E7E7E7" fill-rule="evenodd" d="M176.241 95.134c10.796 1.384 49.853 45.813 18.933 42.467-30.921-3.346-40.045-45.175-18.933-42.467Z" clip-rule="evenodd"/>
  <path fill="#E7E7E7" fill-rule="evenodd" d="M171.234 96.725c8.6 6.688 19.747 64.842-5.198 46.223-24.944-18.619-11.621-59.3 5.198-46.223Z" clip-rule="evenodd"/>
  <path fill="#E7E7E7" fill-rule="evenodd" d="M150.881 94.784c-8.323 3.247-30.638 46.383-6.679 37.575 23.959-8.806 22.955-43.926 6.679-37.576Z" clip-rule="evenodd"/>
  <path fill="#E7E7E7" fill-rule="evenodd" d="M150.381 90.93c-8.155-3.646-54.44 10.789-31.345 21.668 23.096 10.88 47.296-14.535 31.345-21.667Z" clip-rule="evenodd"/>
  <path fill="#F0F0F0" fill-rule="evenodd" d="M91.813 37.962c-11.876-4.552-76.562 19.553-42.89 33.23 33.67 13.679 66.114-24.325 42.89-33.23Z" clip-rule="evenodd"/>
  <path fill="#F0F0F0" fill-rule="evenodd" d="M110.165 32.105c-9.815-8.102-78.79-5.868-51.206 17.834 27.585 23.7 70.4-1.989 51.206-17.834Z" clip-rule="evenodd"/>
  <path fill="#F0F0F0" fill-rule="evenodd" d="M121.799 23.433c-12.447-2.6-72.481 31.52-37.067 39.65 35.414 8.13 61.41-34.565 37.067-39.65Z" clip-rule="evenodd"/>
  <path fill="#F0F0F0" fill-rule="evenodd" d="M123.735 27.54c12.446-2.6 72.481 31.52 37.067 39.65-35.415 8.132-61.41-34.564-37.067-39.65Z" clip-rule="evenodd"/>
  <path fill="#F0F0F0" fill-rule="evenodd" d="M101.762 47.846c-16.522-1.638-89.729 51.043-42.618 56.656 47.111 5.613 74.931-53.452 42.618-56.656Z" clip-rule="evenodd"/>
  <path fill="#F0F0F0" fill-rule="evenodd" d="M108.665 51.928c-15.064 6.998-51.452 89.641-8.022 70.5 43.43-19.139 37.484-84.184 8.022-70.5Z" clip-rule="evenodd"/>
  <path fill="#F0F0F0" fill-rule="evenodd" d="M139.587 56.01c11.266 7.677 29.744 79.45-2.876 58.153-32.619-21.297-19.16-73.167 2.876-58.153Z" clip-rule="evenodd"/>
  <path fill="#F0F0F0" fill-rule="evenodd" d="M141.642 50.452c13.368-2.63 77.264 34.68 39.219 42.947-38.045 8.267-65.364-37.804-39.219-42.947Z" clip-rule="evenodd"/>
  <path fill="#E7E7E7" fill-rule="evenodd" d="M319.9 192.626c-6.474-33.603 29.492-68.186 21.489-79.773-8.003-11.588-42.235-25.923-28.584-1.412 13.651 24.512-1.648 38.327-19.876 82.671-18.228 44.343-10.448 86.904-6.558 96.752h52.349c3.113-21.881-8.422-44.27-18.82-98.238Z" clip-rule="evenodd"/>
  <path fill="#E7E7E7" fill-rule="evenodd" d="M292.026 202.357c-10.615-27.473-29.331-44.075-35.675-55.021-6.345-10.946-32.96-20.207-17.918-.168 15.043 20.04 35.325 21.851 27.444 58.104-7.879 36.252-15.141 77.541-10.401 85.592h42.798c-.921-17.889 10.799-44.386-6.248-88.507Zm-26.425-84.428c6.285-5.932 53.109-7.534 35.489 9.766-17.621 17.302-47.778 1.835-35.489-9.766Z" clip-rule="evenodd"/>
  <path fill="#E7E7E7" fill-rule="evenodd" d="M252.57 119c4.076-7.627 47.962-24.072 36.745-2.052-11.218 22.02-44.716 16.969-36.745 2.052Z" clip-rule="evenodd"/>
  <path fill="#E7E7E7" fill-rule="evenodd" d="M243.032 116.566c7.146-4.854 53.627 1.035 33.485 15.304-20.143 14.27-47.46-5.812-33.485-15.304Z" clip-rule="evenodd"/>
  <path fill="#E7E7E7" fill-rule="evenodd" d="M242.874 119.646c-8.485 1.589-37.395 38.547-13.064 34.488 24.33-4.058 29.658-37.594 13.064-34.488Z" clip-rule="evenodd"/>
  <path fill="#E7E7E7" fill-rule="evenodd" d="M261.9 126.71c9.952-5.304 69.485 8.831 41.349 24.546-28.135 15.715-60.813-14.173-41.349-24.546Z" clip-rule="evenodd"/>
  <path fill="#E7E7E7" fill-rule="evenodd" d="M258.616 131.059c11.261.496 55.392 42.972 23.193 42.192-32.2-.78-45.216-43.161-23.193-42.192Z" clip-rule="evenodd"/>
  <path fill="#E7E7E7" fill-rule="evenodd" d="M240.252 141.624c-5.097 7.736 1.783 57.584 16.781 35.769 14.997-21.813-6.812-50.899-16.781-35.769Z" clip-rule="evenodd"/>
  <path fill="#E7E7E7" fill-rule="evenodd" d="M237.53 138.666c-9.071 1.808-39.583 41.769-13.566 37.115 26.017-4.654 31.307-40.651 13.566-37.115Z" clip-rule="evenodd"/>
  <path fill="#F0F0F0" fill-rule="evenodd" d="M349.212 96.36c10.183.47 50.007 38.973 20.889 38.203-29.117-.77-40.803-39.123-20.889-38.203Z" clip-rule="evenodd"/>
  <path fill="#F0F0F0" fill-rule="evenodd" d="M337.599 86.158c9.804-2.8 59.775 21.01 31.924 29.561-27.851 8.552-51.097-24.085-31.924-29.56Z" clip-rule="evenodd"/>
  <path fill="#F0F0F0" fill-rule="evenodd" d="M331.823 76.047c9.978 2.09 43.182 46.455 14.557 41.049-28.625-5.406-34.071-45.135-14.557-41.049Z" clip-rule="evenodd"/>
  <path fill="#F0F0F0" fill-rule="evenodd" d="M329.086 78.444c-8.314-5.911-63.343-.131-39.919 17.224 23.424 17.356 56.181-5.665 39.919-17.225Z" clip-rule="evenodd"/>
  <path fill="#F0F0F0" fill-rule="evenodd" d="M338.738 100.426c12.666 4.106 49.613 66.344 13.199 55.33-36.414-11.016-37.968-63.36-13.199-55.33Z" clip-rule="evenodd"/>
  <path fill="#F0F0F0" fill-rule="evenodd" d="M332.361 101.207c8.832 9.983 9.141 82.407-16.653 54.386-25.792-28.022-.62-73.91 16.653-54.386Z" clip-rule="evenodd"/>
  <path fill="#F0F0F0" fill-rule="evenodd" d="M308.333 94.27c-10.735 2.02-47.267 48.825-16.486 43.657 30.782-5.167 37.479-47.608 16.486-43.657Z" clip-rule="evenodd"/>
  <path fill="#F0F0F0" fill-rule="evenodd" d="M308.6 89.526c-8.983-6.229-67.868.654-42.555 18.955 25.312 18.302 60.122-6.774 42.555-18.955Z" clip-rule="evenodd"/>
  <mask id="b" width="323" height="19" x="47" y="310" maskUnits="userSpaceOnUse" style="mask-type:alpha">
    <path fill="#fff" fill-rule="evenodd" d="M47.093 310.289h322.815v18.552H47.093v-18.552Z" clip-rule="evenodd"/>
  </mask>
  <g mask="url(#b)">
    <path fill="#F5F5F5" fill-rule="evenodd" d="M369.908 319.565c0 5.123-72.265 9.277-161.408 9.277-89.143 0-161.407-4.154-161.407-9.277 0-5.123 72.264-9.276 161.407-9.276 89.143 0 161.408 4.153 161.408 9.276Z" clip-rule="evenodd"/>
  </g>
  <path fill="#007CFF" fill-rule="evenodd" d="M343.495 254.846a75.557 75.557 0 0 0-5.18 4.544c.471-1.098.937-2.197 1.392-3.292 16.824-40.513 4.512-53.681-14.782-23.583 1.622-10.226 2.44-19.909 1.872-27.941-2.594-36.685-23.432-24.353-27.192 18.344a1357.437 1357.437 0 0 1-1.661 17.275c-.477-4.388-1.147-8.714-2.059-12.889-8.009-36.685-27.025-24.352-24.485 18.345 1.401 23.552 7.154 56.315 8.676 64.702a2.46 2.46 0 0 0 2.431 2.018h35.632a2.47 2.47 0 0 0 2.196-1.332c2.611-5.037 12.637-23.361 27.342-37.88 27.013-26.67 22.623-39.664-4.182-18.311Z" clip-rule="evenodd"/>
  <path fill="#000" fill-rule="evenodd" d="M343.495 254.846a75.557 75.557 0 0 0-5.18 4.544c.471-1.098.937-2.197 1.392-3.292 16.824-40.513 4.512-53.681-14.782-23.583 1.622-10.226 2.44-19.909 1.872-27.941-2.594-36.685-23.432-24.353-27.192 18.344a1357.437 1357.437 0 0 1-1.661 17.275c-.477-4.388-1.147-8.714-2.059-12.889-8.009-36.685-27.025-24.352-24.485 18.345 1.401 23.552 7.154 56.315 8.676 64.702a2.46 2.46 0 0 0 2.431 2.018h35.632a2.47 2.47 0 0 0 2.196-1.332c2.611-5.037 12.637-23.361 27.342-37.88 27.013-26.67 22.623-39.664-4.182-18.311Z" clip-rule="evenodd"/>
  <path fill="#007CFF" fill-rule="evenodd" d="M249.843 281.39c.225.9.575 1.841 1.1 2.835 6.986 13.242 22.789-1.157 27.787-14.61-9.081-2.277-21.081-1.004-26.417 3.818l5.066-16.312c.226.899.576 1.84 1.1 2.835 6.987 13.243 22.79-1.156 27.787-14.611-9.08-2.277-21.08-1.004-26.415 3.82l5.065-16.314c.226.9.576 1.841 1.1 2.836 6.987 13.242 22.789-1.157 27.787-14.611-9.081-2.278-21.081-1.004-26.416 3.819l5.065-16.313c.226.9.576 1.841 1.101 2.835 6.987 13.242 22.79-1.156 27.787-14.61-9.081-2.278-21.081-1.004-26.417 3.818l5.066-16.312c.225.899.576 1.84 1.101 2.835 6.987 13.242 22.789-1.156 27.787-14.61-9.081-2.278-21.081-1.005-26.417 3.818l5.066-16.313c.226.9.576 1.842 1.101 2.836 6.986 13.242 22.789-1.157 27.786-14.611-9.081-2.277-21.081-1.004-26.416 3.818l1.811-5.83c10.223-3.365 2.247-17.363-6.881-23.386-4.778 9.272-5.078 24.373 4.092 23.932l-4.699 15.133c-1.667-6.99-10.841-14.817-19.62-18.066-3.502 13.917 1.37 34.714 14.635 27.739a12.667 12.667 0 0 0 2.515-1.716l-5.066 16.312c-1.668-6.99-10.842-14.816-19.621-18.066-3.502 13.917 1.371 34.714 14.636 27.74a12.707 12.707 0 0 0 2.513-1.717l-5.065 16.313c-1.667-6.99-10.842-14.817-19.621-18.066-3.501 13.916 1.371 34.714 14.635 27.739a12.68 12.68 0 0 0 2.515-1.716l-5.066 16.311c-1.667-6.989-10.841-14.815-19.62-18.064-3.503 13.916 1.37 34.713 14.635 27.738a12.698 12.698 0 0 0 2.515-1.717l-5.066 16.313c-1.668-6.99-10.842-14.816-19.621-18.065-3.502 13.916 1.37 34.714 14.635 27.738a12.63 12.63 0 0 0 2.514-1.716l-5.066 16.313c-1.667-6.991-10.841-14.816-19.619-18.066-3.503 13.916 1.369 34.713 14.635 27.739a12.618 12.618 0 0 0 2.514-1.717l-4.97 16.004a1.25 1.25 0 0 0 2.389.74l8.258-26.592Z" clip-rule="evenodd"/>
  <path fill="#fff" fill-rule="evenodd" d="M249.843 281.39c.225.9.575 1.841 1.1 2.835 6.986 13.242 22.789-1.157 27.787-14.61-9.081-2.277-21.081-1.004-26.417 3.818l5.066-16.312c.226.899.576 1.84 1.1 2.835 6.987 13.243 22.79-1.156 27.787-14.611-9.08-2.277-21.08-1.004-26.415 3.82l5.065-16.314c.226.9.576 1.841 1.1 2.836 6.987 13.242 22.789-1.157 27.787-14.611-9.081-2.278-21.081-1.004-26.416 3.819l5.065-16.313c.226.9.576 1.841 1.101 2.835 6.987 13.242 22.79-1.156 27.787-14.61-9.081-2.278-21.081-1.004-26.417 3.818l5.066-16.312c.225.899.576 1.84 1.101 2.835 6.987 13.242 22.789-1.156 27.787-14.61-9.081-2.278-21.081-1.005-26.417 3.818l5.066-16.313c.226.9.576 1.842 1.101 2.836 6.986 13.242 22.789-1.157 27.786-14.611-9.081-2.277-21.081-1.004-26.416 3.818l1.811-5.83c10.223-3.365 2.247-17.363-6.881-23.386-4.778 9.272-5.078 24.373 4.092 23.932l-4.699 15.133c-1.667-6.99-10.841-14.817-19.62-18.066-3.502 13.917 1.37 34.714 14.635 27.739a12.667 12.667 0 0 0 2.515-1.716l-5.066 16.312c-1.668-6.99-10.842-14.816-19.621-18.066-3.502 13.917 1.371 34.714 14.636 27.74a12.707 12.707 0 0 0 2.513-1.717l-5.065 16.313c-1.667-6.99-10.842-14.817-19.621-18.066-3.501 13.916 1.371 34.714 14.635 27.739a12.68 12.68 0 0 0 2.515-1.716l-5.066 16.311c-1.667-6.989-10.841-14.815-19.62-18.064-3.503 13.916 1.37 34.713 14.635 27.738a12.698 12.698 0 0 0 2.515-1.717l-5.066 16.313c-1.668-6.99-10.842-14.816-19.621-18.065-3.502 13.916 1.37 34.714 14.635 27.738a12.63 12.63 0 0 0 2.514-1.716l-5.066 16.313c-1.667-6.991-10.841-14.816-19.619-18.066-3.503 13.916 1.369 34.713 14.635 27.739a12.618 12.618 0 0 0 2.514-1.717l-4.97 16.004a1.25 1.25 0 0 0 2.389.74l8.258-26.592Z" clip-rule="evenodd"/>
  <path fill="#007CFF" fill-rule="evenodd" d="M200.559 305.723c-25.372-16.819-103.93-73.841-131.914-151.861.238 6.286 2.51 14.047 6.375 22.773-5.545-5.252-15.353-15.335-24.727-28.951 6.407 17.807 17.597 30.197 25.099 36.993-6.418-4.768-15.143-11.916-23.945-21.196 11.3 20.613 28.583 31.824 35.778 35.822l.068.113c-7.946-3.96-24.412-13.01-42.2-27.793 9.314 13.868 20.56 23.7 30.564 30.476-6.723-3.688-14.198-8.338-21.615-14.044 9.993 14.275 23.407 25.034 34.658 32.372-12.362-6.37-27.635-15.123-42.688-26.052 22.046 30.3 61.659 45.657 74.351 49.962l.017.021c-12.7-4.01-41.168-13.933-71.093-30.622 14.028 15.124 32.15 25.82 48.614 33.175-11.21-3.991-23.575-9.029-35.657-15.222 18.264 18.76 46.161 31.906 66.445 39.657-12.973-3.638-28.61-9.172-44.097-17.476 13.14 15.81 31.924 24.752 48.501 29.804-11.878-2.885-25.386-6.912-38.905-12.484 16.699 16.391 39.939 24.016 58.477 27.558-13.734-1.646-30.66-4.593-47.043-9.876 30.987 26.529 87.047 23.6 87.047 23.6l6.39-.657c3.117-.321 4.111-4.362 1.5-6.092Z" clip-rule="evenodd"/>
  <path fill="#007CFF" fill-rule="evenodd" d="M238.828 273.531c-3.403-7.238-7.2-14.814-11.364-22.653l-8.276 8.973 5.301-14.504a656.31 656.31 0 0 0-12.348-21.681l-9.005 9.909 6.311-14.397a699.12 699.12 0 0 0-14.656-23.187l-7.182 10.165 2.327-17.425a647.057 647.057 0 0 0-13.651-19.358l-6.924 11.461 2.82-16.991c-5.985-7.967-11.914-15.435-17.69-22.295l-6.424 8.344 2.43-13.018c-6.96-8.025-13.658-15.106-19.909-21.033l-2.679 8-.164-10.639C115.459 102.007 105.08 95.58 98.074 95.58c-6.835 0-9.61 6.121-8.79 16.825l19.575 11.262-18.97-6.17c1.022 6.529 3.088 14.345 6.116 23.195l23.542 12.342-20.727-4.546c3.226 8.509 7.22 17.806 11.934 27.715l23.549 10.378-20.456-3.995c3.952 8.007 8.343 16.369 13.146 24.998l24.789 8.236-20.346-.39a679.774 679.774 0 0 0 4.97 8.507 692.86 692.86 0 0 0 6.005 9.899l24.237 8.14-20.974-2.901a696.074 696.074 0 0 0 11.548 17.757l25.022 9.204-20.508-2.578a625.218 625.218 0 0 0 16.213 22.444l24.279 5.872-20.407-.819a504.99 504.99 0 0 0 12.049 14.96c3.402 4.056 8.433 6.654 12.91 6.654h36.592c6.327 0 9.525-5.114 7.177-11.432-2.701-7.263-5.978-15.126-9.798-23.47l-10.149 7.526 8.226-11.662Z" clip-rule="evenodd"/>
  <path fill="#fff" fill-rule="evenodd" d="M238.828 273.531c-3.403-7.238-7.2-14.814-11.364-22.653l-8.276 8.973 5.301-14.504a656.31 656.31 0 0 0-12.348-21.681l-9.005 9.909 6.311-14.397a699.12 699.12 0 0 0-14.656-23.187l-7.182 10.165 2.327-17.425a647.057 647.057 0 0 0-13.651-19.358l-6.924 11.461 2.82-16.991c-5.985-7.967-11.914-15.435-17.69-22.295l-6.424 8.344 2.43-13.018c-6.96-8.025-13.658-15.106-19.909-21.033l-2.679 8-.164-10.639C115.459 102.007 105.08 95.58 98.074 95.58c-6.835 0-9.61 6.121-8.79 16.825l19.575 11.262-18.97-6.17c1.022 6.529 3.088 14.345 6.116 23.195l23.542 12.342-20.727-4.546c3.226 8.509 7.22 17.806 11.934 27.715l23.549 10.378-20.456-3.995c3.952 8.007 8.343 16.369 13.146 24.998l24.789 8.236-20.346-.39a679.774 679.774 0 0 0 4.97 8.507 692.86 692.86 0 0 0 6.005 9.899l24.237 8.14-20.974-2.901a696.074 696.074 0 0 0 11.548 17.757l25.022 9.204-20.508-2.578a625.218 625.218 0 0 0 16.213 22.444l24.279 5.872-20.407-.819a504.99 504.99 0 0 0 12.049 14.96c3.402 4.056 8.433 6.654 12.91 6.654h36.592c6.327 0 9.525-5.114 7.177-11.432-2.701-7.263-5.978-15.126-9.798-23.47l-10.149 7.526 8.226-11.662Z" clip-rule="evenodd"/>
  <path fill="#E77B62" fill-rule="evenodd" d="M236.699 114.66a769.503 769.503 0 0 1 3.858 13.665c1.247 4.555 2.481 9.136 3.763 13.571l.47 1.568c-.038-.038-.096-.062-.08.003.028.123.456.536 1.15.855 1.404.668 3.491 1.149 5.604 1.42 2.136.295 4.389.429 6.666.502 1.139.023 2.29.069 3.442.064l3.428-.038.892 5.154c-4.838 1.377-9.631 2.263-14.851 2.382-2.616.001-5.309-.088-8.37-1.083-1.513-.526-3.233-1.276-4.832-2.904a9.41 9.41 0 0 1-1.948-3.011l-.704-1.805c-1.741-4.594-3.229-9.14-4.672-13.719a306.692 306.692 0 0 1-3.968-13.811l10.152-2.813Z" clip-rule="evenodd"/>
  <path fill="#1A2E35" fill-rule="evenodd" d="M224.235 112.299c-3.061 6.195 6.743 26.532 6.743 26.532l12.592-4.994s-.494-9.704-3.547-18.108c-3.216-8.851-12.383-10.318-15.788-3.43Z" clip-rule="evenodd"/>
  <path fill="#000" fill-rule="evenodd" d="M223.922 113.085c2.969-.991 5.981.508 8.5 6.198 2.484 5.63 3.997 14.867 3.916 17.424l-5.361 2.123s-9.172-18.839-7.055-25.745Z" clip-rule="evenodd"/>
  <path fill="#E77B62" fill-rule="evenodd" d="m263.444 146.943 3.786-3.08a4.403 4.403 0 0 1 6.392.898c1.954 2.797.146 6.661-3.246 6.949-1.701.144-3.958.041-5.559-.211l-1.373-4.556Z" clip-rule="evenodd"/>
  <path fill="#1A2E35" fill-rule="evenodd" d="M233.332 108.422s5.825 22.706-7.091 62.101l-38.295-4.663c.402-5.284 6.15-28.355 5.757-53.467-.084-5.316 4.284-9.595 9.584-9.438.99.029 1.999.078 2.995.151 4.922.359 12.024 1.065 16.279 1.982 5.608 1.21 10.771 3.334 10.771 3.334Z" clip-rule="evenodd"/>
  <path fill="#000" fill-rule="evenodd" d="M200.522 105.836c-1.036-.63-2.392-.684-3.907-.346a9.248 9.248 0 0 0-2.915 6.903c.079 4.753-.072 9.434-.364 13.93a43.365 43.365 0 0 0 5.299-4.033c6.99-6.201 8.213-12.607 1.887-16.454Z" clip-rule="evenodd"/>
  <path fill="#E77B62" fill-rule="evenodd" d="M210.121 84.923c.391 5.377.25 15.124-3.839 18.182 4.759 2.749 7.092 6.765 12.519 7.764 4.227.778 4.615-3.406 3.76-5.781-5.672-2.11-4.995-6.437-3.482-10.393l-8.958-9.772Z" clip-rule="evenodd"/>
  <path fill="#000" fill-rule="evenodd" d="m213.772 88.91 5.301 5.78c-.361.936-.669 1.893-.852 2.836-2.192-.595-4.96-3.424-4.913-5.795.023-1.183.208-2.3.464-2.82Z" clip-rule="evenodd"/>
  <path fill="#E77B62" fill-rule="evenodd" d="M210.455 76.944c-.426 7.164-1.038 11.335 2.102 15.422 4.723 6.147 13.872 3.956 16.424-2.937 2.297-6.204 2.607-16.877-3.993-20.553-6.501-3.62-14.108.904-14.533 8.068Z" clip-rule="evenodd"/>
  <path fill="#1A2E35" fill-rule="evenodd" d="M210.148 83.144s3.539-1.145 3.142-6.091c1.044-2.756 13.19-4.644 13.19-4.644s.821.729 2.603-.926c3.987-3.702-2.652-8.008-9.051-8.403.627 1.148 1.016 1.654 1.016 1.654s-8.634-1.395-13.79 1.431c.96.345 1.821.32 1.821.32s-4.134 2.567-6.621 5.307c4.307 2.442 5.809 2.838 5.809 2.838l.074 4.935 1.807 3.579Z" clip-rule="evenodd"/>
  <path fill="#007CFF" fill-rule="evenodd" d="M207.771 74.88c-.205.947-.48 2.959.345 4.738.23.496.834.694 1.327.46 2.252-1.065 7.014-3.78 12.463-4.87 2.936-.588 5.341-.453 6.769-.258.72.099 1.298-.586 1.097-1.286-.271-.948-.752-2.19-1.593-3.322a1.122 1.122 0 0 0-.772-.433c-5.673-.648-9.867-.167-19.023 4.197a1.12 1.12 0 0 0-.613.775Z" clip-rule="evenodd"/>
  <path fill="#E77B62" fill-rule="evenodd" d="M206.302 84.392c.808 1.758 2.35 2.977 3.847 3.503 2.252.792 3.531-1.19 3.034-3.401-.447-1.99-2.157-4.8-4.48-4.638-2.287.162-3.325 2.527-2.401 4.536Zm4.992 86.131s-15.439 50.32-24.582 70.393c-9.51 20.878-41.006 66.562-41.006 66.562l-5.659-3.713s21.518-46.141 30.372-66.853c3.691-12.956 19.542-69.861 19.542-69.861l21.333 3.472Z" clip-rule="evenodd"/>
  <path fill="#1A2E35" fill-rule="evenodd" d="m148.116 304.984-6.708-4.557a.626.626 0 0 0-.784.064l-4.775 4.52a1.065 1.065 0 0 0 .155 1.659c2.369 1.55 3.131 2.297 6.081 4.301 1.815 1.233 7.464 6.55 10.484 6.75 2.955.194 3.299-2.209 1.477-2.85-5.366-1.892-4.633-6.532-5.209-8.861a1.744 1.744 0 0 0-.721-1.026Z" clip-rule="evenodd"/>
  <path fill="#fff" fill-rule="evenodd" d="M148.596 306.213c1.111.086 2.442.326 2.644.696.022.041.036.096-.023.196-.13.223-.301.347-.515.369-.491.05-1.261-.415-2.106-1.261Zm2.877 1.24c.034-.044.064-.091.094-.142.152-.258.1-.466.029-.597-.429-.786-2.986-.919-3.495-.938a.202.202 0 0 0-.191.118.202.202 0 0 0 .034.222c.636.701 1.846 1.862 2.8 1.763a1.02 1.02 0 0 0 .729-.426Z" clip-rule="evenodd"/>
  <path fill="#fff" fill-rule="evenodd" d="M148.538 305.774c.477-.521 1.288-1.271 1.899-1.326a.572.572 0 0 1 .446.136c.15.132.117.209.101.247-.174.409-1.534.87-2.446.943Zm2.731-.634a.708.708 0 0 0 .087-.147c.063-.146.119-.431-.207-.715a.959.959 0 0 0-.749-.235c-1.091.099-2.41 1.739-2.466 1.809a.2.2 0 0 0-.028.207.207.207 0 0 0 .167.123c.797.078 2.684-.361 3.196-1.042Z" clip-rule="evenodd"/>
  <path fill="#E77B62" fill-rule="evenodd" d="M225.993 174.156s20.898 27.007 28.353 47.481c3.624 9.953-26.348 53.236-26.348 53.236l-3.729-5.509c-1.037.475 8.701-29.946 15.999-41.607-13.094-19.058-33.937-41.506-33.937-41.506l19.662-12.095Z" clip-rule="evenodd"/>
  <path fill="#1A2E35" fill-rule="evenodd" d="m229.537 273.073-5.239-6.197a.627.627 0 0 0-.773-.151l-5.811 3.066a1.065 1.065 0 0 0-.296 1.64c1.866 2.132 2.881 3.076 5.185 5.801 1.418 1.677 6.222 7.714 8.18 10.03 1.914 2.264 4.496.677 3.902-.447-2.666-5.039-4.799-10.161-4.73-12.559a1.755 1.755 0 0 0-.418-1.183Z" clip-rule="evenodd"/>
  <path fill="#fff" fill-rule="evenodd" d="M229.668 274.387c1.048.382 2.265.972 2.36 1.384.011.045.01.102-.074.183-.186.179-.383.252-.595.215-.486-.084-1.103-.739-1.691-1.782Zm2.439 1.971c.044-.034.086-.07.129-.112.216-.207.221-.423.188-.567-.203-.874-2.63-1.691-3.115-1.846a.204.204 0 0 0-.243.285c.426.847 1.28 2.29 2.224 2.452.293.051.567-.02.817-.212Z" clip-rule="evenodd"/>
  <path fill="#fff" fill-rule="evenodd" d="M229.728 273.909c.6-.374 1.581-.877 2.185-.765a.567.567 0 0 1 .393.25c.11.168.057.234.031.266-.277.347-1.711.423-2.609.249Zm2.801.124a.666.666 0 0 0 .124-.118c.099-.122.229-.382-.008-.744a.964.964 0 0 0-.658-.428c-1.079-.2-2.789 1.026-2.861 1.079a.195.195 0 0 0-.083.191c.01.073.059.136.129.163.746.29 2.68.376 3.357-.143Z" clip-rule="evenodd"/>
  <path fill="#1A2E35" fill-rule="evenodd" d="M226.241 170.523s10.699 15.133 16.704 28.479c-4.149 1.579-12.847 8.741-14.642 12.801-14.085-14.066-28.183-29.158-28.183-29.158l10.62-14.009 15.501 1.887Z" clip-rule="evenodd"/>
  <path fill="#000" fill-rule="evenodd" d="m208.168 181.461-.912 8.73c2.835 2.985 6.344 6.636 10.154 10.564-2.889-10.288-9.242-19.294-9.242-19.294Z" clip-rule="evenodd"/>
  <path fill="#1A2E35" fill-rule="evenodd" d="M217.972 169.516s-17.283 35.793-20.445 43.143c-3.286-1.513-14.728-5.622-18.682-5.484.05-4.298 9.101-41.315 9.101-41.315l30.026 3.656Zm3-89.275c-.071.579.179 1.086.556 1.131.377.046.74-.386.811-.965.07-.579-.179-1.085-.557-1.131-.378-.047-.741.386-.81.965Zm6.527.795c-.07.579.179 1.085.557 1.131.377.047.739-.386.81-.964.07-.58-.179-1.086-.556-1.132-.379-.046-.741.386-.811.965Z" clip-rule="evenodd"/>
  <path fill="#D64C38" fill-rule="evenodd" d="M225.389 81.071s.909 3.5 2.159 5.289c-1.138.831-2.822.183-2.822.183l.663-5.472Z" clip-rule="evenodd"/>
  <path fill="#1A2E35" fill-rule="evenodd" d="M222.871 87.938a.172.172 0 0 0 .17-.15.173.173 0 0 0-.149-.191c-2.536-.31-3.503-2.228-3.513-2.247a.169.169 0 0 0-.228-.078.17.17 0 0 0-.079.228c.042.087 1.061 2.106 3.778 2.437l.021.001Zm-3.569-10.044a.341.341 0 0 0 .245-.104c1.049-1.088 2.261-.88 2.312-.872a.343.343 0 0 0 .129-.672c-.067-.014-1.618-.295-2.932 1.067a.343.343 0 0 0 .246.58Zm11.368 1.244a.343.343 0 0 0 .323-.454c-.615-1.792-2.14-2.195-2.204-2.211a.343.343 0 0 0-.169.664c.055.014 1.237.343 1.727 1.77a.342.342 0 0 0 .323.231Z" clip-rule="evenodd"/>
  <path fill="#E77B62" fill-rule="evenodd" d="M200.14 113.906c-4.351 1.527-8.825 3.137-13.149 4.798a167.582 167.582 0 0 0-6.391 2.591c-2.059.897-4.106 1.875-5.765 2.86-.202.123-.412.246-.579.364a7.242 7.242 0 0 0-.492.34l-.203.146c-.014.011-.031.005-.055.029a.93.93 0 0 0-.185.168c-.298.327-.708 1.041-1.028 1.877-.646 1.707-1.105 3.855-1.423 6.039-.331 2.2-.532 4.49-.691 6.802-.065 1.156-.154 2.323-.2 3.492l-.118 3.48-5.178.644c-1.16-4.916-1.847-9.779-1.884-14.963.018-2.594.149-5.241.881-8.136.388-1.45.88-2.992 1.957-4.636.272-.41.574-.823.94-1.232.17-.204.38-.407.579-.606l.482-.436c.32-.293.62-.532.92-.766.308-.249.598-.455.892-.668 2.333-1.667 4.576-2.848 6.837-4.006 2.249-1.144 4.517-2.151 6.782-3.123a159.534 159.534 0 0 1 13.805-5.098l3.266 10.04Z" clip-rule="evenodd"/>
  <path fill="#E77B62" fill-rule="evenodd" d="m169.863 144.576.928 6.452c.327 2.545-1.566 4.834-4.121 4.982-3.399.197-5.729-3.374-4.191-6.42.771-1.526 1.692-3.057 2.746-4.291l4.638-.723Z" clip-rule="evenodd"/>
  <path fill="#1A2E35" fill-rule="evenodd" d="M208.168 104.787c-4.328-5.647-25.565 3.184-25.565 3.184l4.275 14.1s5.822.237 13.586-2.637c8.761-3.242 12.211-8.767 7.704-14.647Z" clip-rule="evenodd"/>
  <path fill="#007CFF" fill-rule="evenodd" d="m187.517 163.196-.587 3.085a.812.812 0 0 0 .615.946c2.734.627 12.482 2.771 23.482 4.15 9.892 1.239 14.464 1.049 16.084.888a.808.808 0 0 0 .724-.812l-.005-2.849a.81.81 0 0 0-.779-.813c-3.105-.109-15.57-.808-38.575-5.241a.819.819 0 0 0-.959.646Z" clip-rule="evenodd"/>
</svg>
