<svg xmlns="http://www.w3.org/2000/svg" width="79" height="80" fill="none" viewBox="0 0 79 80">
  <g clip-path="url(#a)">
    <rect width="77.425" height="79.41" x=".8" y=".59" fill="#414859" rx="20"/>
    <path fill="#fff" d="M28.514 27.68h-1.666v-7.308l-3.094 7.308h-1.456l-3.066-7.28v7.28h-1.638v-9.926h2.24l3.22 7.574 3.178-7.574h2.282v9.926Zm4.315 2.758h-1.736l1.638-3.57-2.912-6.006h1.834l1.96 4.312 1.834-4.312h1.722l-4.34 9.576ZM14.659 44.14h1.765c.914 0 1.666-.29 2.254-.868.597-.588.896-1.433.896-2.534 0-1.111-.294-1.96-.882-2.548-.588-.598-1.34-.896-2.254-.896H14.66v6.846Zm1.82 1.54h-3.5v-9.926h3.515c1.4 0 2.552.443 3.458 1.33.914.886 1.372 2.104 1.372 3.654 0 1.54-.458 2.748-1.372 3.626-.915.877-2.072 1.316-3.472 1.316Zm6.044-1.848c0-.579.187-1.041.56-1.386.383-.355.882-.579 1.498-.672l1.75-.266c.336-.047.504-.21.504-.49a.935.935 0 0 0-.322-.742c-.215-.196-.537-.294-.966-.294-.41 0-.737.116-.98.35a1.342 1.342 0 0 0-.42.882l-1.484-.336c.066-.616.36-1.139.882-1.568.523-.439 1.185-.658 1.988-.658.99 0 1.717.238 2.184.714.476.476.714 1.087.714 1.834v3.388c0 .448.028.812.084 1.092h-1.512c-.047-.14-.07-.43-.07-.868-.448.718-1.148 1.078-2.1 1.078-.69 0-1.25-.201-1.68-.602-.42-.411-.63-.896-.63-1.456Zm2.618.784c.504 0 .91-.136 1.218-.406.317-.28.476-.733.476-1.358v-.308l-1.778.266c-.606.102-.91.41-.91.924 0 .242.089.452.266.63.177.168.42.252.728.252Zm7.284-7.84v2.086h1.414v1.442h-1.414v3.164c0 .298.07.518.21.658.14.13.36.196.658.196.187 0 .373-.019.56-.056v1.344c-.243.102-.574.154-.994.154-.635 0-1.134-.178-1.498-.532-.364-.364-.546-.864-.546-1.498v-3.43h-1.26v-1.442h.35c.345 0 .607-.098.784-.294.177-.196.266-.453.266-.77v-1.022h1.47Zm2.676 7.056c0-.579.187-1.041.56-1.386.383-.355.882-.579 1.498-.672l1.75-.266c.336-.047.504-.21.504-.49a.935.935 0 0 0-.322-.742c-.214-.196-.536-.294-.966-.294-.41 0-.737.116-.98.35-.242.224-.382.518-.42.882l-1.484-.336c.066-.616.36-1.139.882-1.568.523-.439 1.186-.658 1.988-.658.99 0 1.718.238 2.184.714.476.476.714 1.087.714 1.834v3.388c0 .448.028.812.084 1.092h-1.512c-.046-.14-.07-.43-.07-.868-.448.718-1.148 1.078-2.1 1.078-.69 0-1.25-.201-1.68-.602-.42-.411-.63-.896-.63-1.456Zm2.618.784c.504 0 .91-.136 1.218-.406.318-.28.476-.733.476-1.358v-.308l-1.778.266c-.606.102-.91.41-.91.924 0 .242.089.452.266.63.178.168.42.252.728.252Z"/>
    <path fill="#7E8492" d="M22.494 34.29h-1.451v-3.636h-3.996v3.637h-1.44v-8.508h1.44v3.515h3.995v-3.515h1.452v8.508Zm3.302 0h-1.38v-5.843h1.38v5.844Zm-1.332-7.26a.867.867 0 0 1-.264-.636c0-.247.088-.46.264-.635a.848.848 0 0 1 .636-.276c.256 0 .472.087.648.264a.881.881 0 0 1 .264.648c0 .247-.088.46-.264.636a.881.881 0 0 1-.648.264.867.867 0 0 1-.636-.265Zm2.612 5.676 1.212-.336c.024.28.14.517.348.709.208.191.488.288.84.288.272 0 .484-.064.636-.192a.591.591 0 0 0 .24-.48c0-.337-.228-.553-.684-.648l-.864-.192c-.504-.113-.892-.32-1.164-.625a1.566 1.566 0 0 1-.408-1.08c0-.511.208-.951.624-1.32.416-.375.924-.563 1.524-.563.384 0 .724.056 1.02.168.296.112.524.26.684.444.168.175.296.348.384.515.088.169.144.337.168.505l-1.176.335a1.044 1.044 0 0 0-.312-.6c-.168-.183-.424-.276-.768-.276a.9.9 0 0 0-.6.204.58.58 0 0 0-.24.468c0 .328.196.532.588.612l.888.18c.544.12.96.337 1.248.649a1.6 1.6 0 0 1 .432 1.128c0 .488-.196.924-.588 1.308-.384.376-.924.564-1.62.564-.4 0-.76-.06-1.08-.18a2.104 2.104 0 0 1-.744-.456 3.113 3.113 0 0 1-.42-.565 1.564 1.564 0 0 1-.168-.564ZM18 41.658v1.788h1.212v1.236H18v2.712c0 .257.06.445.18.565.12.111.308.167.564.167.16 0 .32-.015.48-.047v1.151c-.207.089-.491.133-.852.133-.544 0-.971-.152-1.284-.456-.312-.313-.468-.74-.468-1.284v-2.94h-1.08v-1.236h.3c.297 0 .52-.085.672-.253.152-.168.229-.388.229-.66v-.876H18Zm3.988 6.072c.32.329.708.492 1.164.492.456 0 .84-.163 1.152-.492.32-.327.48-.783.48-1.367 0-.577-.16-1.024-.48-1.344a1.527 1.527 0 0 0-1.152-.492c-.456 0-.844.163-1.164.492-.312.32-.468.767-.468 1.343s.156 1.032.468 1.368Zm1.164-4.463c.88 0 1.604.291 2.172.875.576.584.864 1.325.864 2.22 0 .896-.288 1.64-.864 2.232-.568.584-1.292.877-2.172.877-.872 0-1.596-.292-2.172-.877-.568-.592-.852-1.336-.852-2.232 0-.895.284-1.636.852-2.22.576-.584 1.3-.876 2.172-.876Zm7.801.143v1.417a3.079 3.079 0 0 0-.456-.036c-1.048 0-1.572.572-1.572 1.716v2.784h-1.392v-5.844h1.356v.935a1.54 1.54 0 0 1 .66-.731 1.954 1.954 0 0 1 1.032-.277c.128 0 .252.012.372.036ZM22.8 66.656h-1.488l1.404-3.06-2.496-5.148h1.572l1.68 3.695 1.572-3.696h1.476l-3.72 8.209Z"/>
    <rect width="6.948" height="6.948" x="12.711" y="48.732" fill="#7BDEFB" rx="3"/>
    <rect width="6.948" height="6.948" x="12.711" y="58.162" fill="#388AF7" rx="3"/>
    <rect width="6.948" height="6.948" x="22.141" y="58.162" fill="#388AF7" rx="3"/>
    <rect width="6.948" height="6.948" x="22.141" y="48.732" fill="#388AF7" rx="3"/>
  </g>
  <defs>
    <clipPath id="a">
      <path fill="#fff" d="M0 0h77.425v79.41H0z" transform="translate(.8 .59)"/>
    </clipPath>
  </defs>
</svg>
