<svg xmlns="http://www.w3.org/2000/svg" width="54" height="43" fill="none" viewBox="0 0 54 43">
  <path fill="#051D3F" fill-rule="evenodd" d="M6 10.9h42c3.315 0 6 2.35 6 5.25v21c0 2.9-2.685 5.25-6 5.25H6c-3.315 0-6-2.35-6-5.25v-21c0-2.9 2.685-5.25 6-5.25Zm21 26.25c6.627 0 12-4.701 12-10.5s-5.373-10.5-12-10.5-12 4.701-12 10.5 5.373 10.5 12 10.5Z" clip-rule="evenodd"/>
  <path fill="#7C42FF" fill-rule="evenodd" d="M33 .4H21c-1.656 0-3 1.175-3 2.625s1.344 2.625 3 2.625h12c1.656 0 3-1.175 3-2.625S34.656.4 33 .4Zm-6 31.5c3.315 0 6-2.35 6-5.25s-2.685-5.25-6-5.25-6 2.35-6 5.25 2.685 5.25 6 5.25Z" clip-rule="evenodd"/>
</svg>
