<svg xmlns="http://www.w3.org/2000/svg" width="52" height="52" fill="none" viewBox="0 0 52 52">
  <path fill="#CFD8DC" d="M.666 46.667v-32h50.667v32c0 2.933-2.4 5.333-5.334 5.333H6C3.066 52 .666 49.6.666 46.667Z"/>
  <path fill="#F44336" d="M51.333 9.333v8H.666v-8C.666 6.4 3.066 4 5.999 4h40c2.934 0 5.334 2.4 5.334 5.333Z"/>
  <path fill="#B71C1C" fill-rule="evenodd" d="M38 5.333a4 4 0 1 0 0 8 4 4 0 0 0 0-8Zm-24 0a4 4 0 1 0 0 8 4 4 0 0 0 0-8Z" clip-rule="evenodd"/>
  <path fill="#B0BEC5" fill-rule="evenodd" d="M38 0a2.675 2.675 0 0 0-2.666 2.667v6.666c0 1.467 1.2 2.667 2.667 2.667 1.466 0 2.666-1.2 2.666-2.667V2.667C40.667 1.2 39.467 0 38.001 0ZM14 0a2.675 2.675 0 0 0-2.666 2.667v6.666c0 1.467 1.2 2.667 2.667 2.667 1.466 0 2.666-1.2 2.666-2.667V2.667C16.667 1.2 15.467 0 14.001 0Z" clip-rule="evenodd"/>
  <path fill="#90A4AE" fill-rule="evenodd" d="M11.334 22.667h5.333V28h-5.333v-5.333Zm8 0h5.333V28h-5.333v-5.333Zm8 0h5.333V28h-5.333v-5.333Zm8 0h5.333V28h-5.333v-5.333Zm-24 8h5.333V36h-5.333v-5.333Zm8 0h5.333V36h-5.333v-5.333Zm8 0h5.333V36h-5.333v-5.333Zm8 0h5.333V36h-5.333v-5.333Zm-24 8h5.333V44h-5.333v-5.333Zm8 0h5.333V44h-5.333v-5.333Zm8 0h5.333V44h-5.333v-5.333Zm8 0h5.333V44h-5.333v-5.333Z" clip-rule="evenodd"/>
</svg>
