<svg xmlns="http://www.w3.org/2000/svg" width="56" height="57" fill="none" viewBox="0 0 56 57">
  <circle cx="1.94" cy="13.59" r="1.42" fill="#EE3E54"/>
  <circle cx="47.38" cy="2.23" r=".71" fill="#F1BC19"/>
  <circle cx="28.209" cy="28.5" r="26.27" fill="#FCE0A2"/>
  <circle cx="51.639" cy="3.65" r="2.84" fill="#F1BC19"/>
  <circle cx="54.48" cy="10.04" r="1.42" fill="#EE3E54"/>
  <circle cx="50.219" cy="46.96" r="1.42" fill="#FBCD59"/>
  <circle cx="3.36" cy="37.73" r="2.84" fill="#FBCD59"/>
  <circle cx="10.459" cy="54.77" r="1.42" fill="#EE3E54"/>
  <circle cx="6.554" cy="31.695" r="1.775" fill="#fff"/>
  <circle cx="7.62" cy="40.57" r=".71" fill="#F1BC19"/>
  <circle cx="49.509" cy="17.14" r=".71" fill="#fff"/>
  <path fill="#FDFCEF" fill-rule="evenodd" d="M39.37 44.83H17.047a5.17 5.17 0 0 1-5.17-5.17V17.34a5.17 5.17 0 0 1 5.17-5.17H39.37a5.17 5.17 0 0 1 5.17 5.17v22.32a5.17 5.17 0 0 1-5.17 5.17Z" clip-rule="evenodd"/>
  <path fill="#472B29" fill-rule="evenodd" d="M40.08 12.454a4.18 4.18 0 0 1 4.176 4.176v23.74a4.18 4.18 0 0 1-4.175 4.176H16.34a4.18 4.18 0 0 1-4.176-4.175V16.63a4.18 4.18 0 0 1 4.176-4.176h23.74m0-.994H16.34a5.17 5.17 0 0 0-5.17 5.17v23.74a5.17 5.17 0 0 0 5.17 5.17h23.74a5.17 5.17 0 0 0 5.17-5.17V16.63a5.17 5.17 0 0 0-5.17-5.17Z" clip-rule="evenodd"/>
  <path fill="#472B29" fill-rule="evenodd" d="M14.365 21.519a.355.355 0 0 1-.355-.355v-3.077a3.791 3.791 0 0 1 3.786-3.787h9.94a.355.355 0 0 1 0 .71h-9.94a3.08 3.08 0 0 0-3.076 3.077v3.076c0 .197-.16.356-.355.356ZM22.234 42.7h-4.438a3.791 3.791 0 0 1-3.786-3.786V24.477a.355.355 0 0 1 .71 0v14.436a3.08 3.08 0 0 0 3.076 3.077h4.438a.355.355 0 0 1 0 .71Zm16.39 0H24.6a.355.355 0 0 1 0-.71h14.023a3.08 3.08 0 0 0 3.076-3.076v-11.42a.355.355 0 0 1 .71 0v11.419a3.791 3.791 0 0 1-3.786 3.787Z" clip-rule="evenodd"/>
  <path fill="#EE3E54" fill-rule="evenodd" d="M34.434 17.788a.792.792 0 0 1-1.09 0c-2.624-2.453-6.555-1.087-6.555 2.526 0 3.139 2.44 6.631 6.732 8.851a.811.811 0 0 0 .736 0c4.293-2.22 6.732-5.713 6.732-8.851 0-3.613-3.931-4.979-6.555-2.526Z" clip-rule="evenodd"/>
  <path fill="#472B29" fill-rule="evenodd" d="M33.89 29.61c-.183 0-.365-.044-.532-.13-4.206-2.175-6.923-5.773-6.923-9.166 0-1.741.87-3.158 2.33-3.792 1.577-.685 3.425-.3 4.822 1.007a.439.439 0 0 0 .605 0c1.398-1.306 3.245-1.691 4.823-1.007 1.458.634 2.33 2.05 2.33 3.792 0 3.393-2.718 6.991-6.924 9.167a1.156 1.156 0 0 1-.531.128ZM30.374 16.9c-.454 0-.903.09-1.327.273-1.192.517-1.902 1.692-1.902 3.14 0 3.132 2.567 6.482 6.54 8.536a.454.454 0 0 0 .41 0c3.972-2.054 6.54-5.405 6.54-8.535 0-1.45-.711-2.624-1.903-3.14-1.314-.571-2.869-.237-4.055.873a1.14 1.14 0 0 1-1.574 0c-.805-.752-1.777-1.148-2.73-1.148Z" clip-rule="evenodd"/>
</svg>
