<svg xmlns="http://www.w3.org/2000/svg" width="20" height="20" fill="none" viewBox="0 0 20 20">
  <path fill="#7C42FF" fill-rule="evenodd" d="M7.083.667H2.416a1.75 1.75 0 0 0-1.75 1.75v4.666c0 .967.784 1.75 1.75 1.75h4.667a1.75 1.75 0 0 0 1.75-1.75V2.416a1.75 1.75 0 0 0-1.75-1.75ZM2.417 11.166h4.666c.967 0 1.75.784 1.75 1.75v4.667a1.75 1.75 0 0 1-1.75 1.75H2.416a1.75 1.75 0 0 1-1.75-1.75v-4.666c0-.967.784-1.75 1.75-1.75Zm10.5-10.5h4.666c.967 0 1.75.784 1.75 1.75v4.667a1.75 1.75 0 0 1-1.75 1.75h-4.666a1.75 1.75 0 0 1-1.75-1.75V2.416c0-.966.783-1.75 1.75-1.75Zm0 10.5h4.666c.967 0 1.75.784 1.75 1.75v4.667a1.75 1.75 0 0 1-1.75 1.75h-4.666a1.75 1.75 0 0 1-1.75-1.75v-4.666c0-.967.783-1.75 1.75-1.75Z" clip-rule="evenodd"/>
</svg>
